<?xml version="1.0" encoding="UTF-8" standalone="no"?>
<!-- Created with Inkscape (http://www.inkscape.org/) -->

<svg
   xmlns:dc="http://purl.org/dc/elements/1.1/"
   xmlns:cc="http://creativecommons.org/ns#"
   xmlns:rdf="http://www.w3.org/1999/02/22-rdf-syntax-ns#"
   xmlns:svg="http://www.w3.org/2000/svg"
   xmlns="http://www.w3.org/2000/svg"
   xmlns:sodipodi="http://sodipodi.sourceforge.net/DTD/sodipodi-0.dtd"
   xmlns:inkscape="http://www.inkscape.org/namespaces/inkscape"
   width="9"
   height="5.9999623"
   viewBox="0 0 2.3812501 1.58749"
   version="1.1"
   id="svg8"
   inkscape:version="0.92.4 (5da689c313, 2019-01-14)"
   sodipodi:docname="triangle.svg">
  <defs
     id="defs2">
    <filter
       inkscape:collect="always"
       style="color-interpolation-filters:sRGB"
       id="filter4687"
       x="-0.87480903"
       width="2.7496181"
       y="-1.9100006"
       height="4.8200011">
      <feGaussianBlur
         inkscape:collect="always"
         stdDeviation="100.86441"
         id="feGaussianBlur4689" />
    </filter>
  </defs>
  <sodipodi:namedview
     id="base"
     pagecolor="#ffffff"
     bordercolor="#666666"
     borderopacity="1.0"
     inkscape:pageopacity="0.0"
     inkscape:pageshadow="2"
     inkscape:zoom="20.5263"
     inkscape:cx="1.9055271"
     inkscape:cy="6.7113801"
     inkscape:document-units="mm"
     inkscape:current-layer="layer2"
     showgrid="false"
     inkscape:lockguides="false"
     inkscape:window-width="1920"
     inkscape:window-height="1017"
     inkscape:window-x="-8"
     inkscape:window-y="-8"
     inkscape:window-maximized="1"
     fit-margin-top="0"
     fit-margin-left="0"
     fit-margin-right="0"
     fit-margin-bottom="0"
     units="px" />
  <metadata
     id="metadata5">
    <rdf:RDF>
      <cc:Work
         rdf:about="">
        <dc:format>image/svg+xml</dc:format>
        <dc:type
           rdf:resource="http://purl.org/dc/dcmitype/StillImage" />
        <dc:title />
      </cc:Work>
    </rdf:RDF>
  </metadata>
  <g
     inkscape:label="Layer 1"
     inkscape:groupmode="layer"
     id="layer1"
     style="display:none"
     transform="translate(-48.57927,-153.46492)">
    <path
       style="opacity:0;fill:none;stroke-width:0.71428573"
       d="m 168.25669,561.88545 c 3.1245,-3.05756 108.87474,-102.49712 128.62947,-120.95346 l 2.20805,-2.06292 70.6098,63.06593 70.60981,63.06594 -35.67499,0.43575 c -19.62124,0.23966 -81.79678,0.48073 -138.16785,0.53571 l -102.49286,0.1 z"
       id="path3780"
       inkscape:connector-curvature="0"
       transform="scale(0.26458333)" />
    <path
       style="opacity:0;fill:#f9b43b;fill-opacity:0;stroke-width:0.71428573"
       d="m 168.25669,561.88545 c 3.1245,-3.05756 108.87474,-102.49712 128.62947,-120.95346 l 2.20805,-2.06292 70.6098,63.06593 70.60981,63.06594 -35.67499,0.43575 c -19.62124,0.23966 -81.79678,0.48073 -138.16785,0.53571 l -102.49286,0.1 z"
       id="path3782"
       inkscape:connector-curvature="0"
       transform="scale(0.26458333)" />
    <path
       style="opacity:0;fill:#f9b43b;fill-opacity:0;stroke-width:0.71428573"
       d="m 165.49943,564.35989 c 1.04101,-0.91704 31.38879,-29.43367 67.43952,-63.37029 36.05074,-33.93662 65.78827,-61.70295 66.08341,-61.70295 0.29515,0 32.2087,28.28572 70.91901,62.85715 l 70.38238,62.85714 -35.50139,0.43575 c -19.52576,0.23966 -81.7871,0.47058 -138.35852,0.51314 l -102.85715,0.0774 z"
       id="path4589"
       inkscape:connector-curvature="0"
       transform="scale(0.26458333)" />
    <path
       style="opacity:0;fill:#f9b43b;fill-opacity:0;stroke-width:0.71428573"
       d="m 165.49943,564.35989 c 1.04101,-0.91704 31.38879,-29.43367 67.43952,-63.37029 36.05074,-33.93662 65.78827,-61.70295 66.08341,-61.70295 0.29515,0 32.2087,28.28572 70.91901,62.85715 l 70.38238,62.85714 -35.50139,0.43575 c -19.52576,0.23966 -81.7871,0.47058 -138.35852,0.51314 l -102.85715,0.0774 z"
       id="path4591"
       inkscape:connector-curvature="0"
       transform="scale(0.26458333)" />
    <path
       style="opacity:0;fill:#f9b43b;fill-opacity:0;stroke-width:0.71428573"
       d="m 165.49943,564.35989 c 1.04101,-0.91704 31.38879,-29.43367 67.43952,-63.37029 36.05074,-33.93662 65.78827,-61.70295 66.08341,-61.70295 0.29515,0 32.2087,28.28572 70.91901,62.85715 l 70.38238,62.85714 -35.50139,0.43575 c -19.52576,0.23966 -81.7871,0.47058 -138.35852,0.51314 l -102.85715,0.0774 z"
       id="path4593"
       inkscape:connector-curvature="0"
       transform="scale(0.26458333)" />
    <path
       style="opacity:0;fill:#f9b43b;fill-opacity:0;stroke:#000000;stroke-width:0.71428573;stroke-opacity:1"
       d="m 165.49943,564.35989 c 1.04101,-0.91704 31.38879,-29.43367 67.43952,-63.37029 36.05074,-33.93662 65.78827,-61.70295 66.08341,-61.70295 0.29515,0 32.2087,28.28572 70.91901,62.85715 l 70.38238,62.85714 -35.50139,0.43575 c -19.52576,0.23966 -81.7871,0.47058 -138.35852,0.51314 l -102.85715,0.0774 z"
       id="path4595"
       inkscape:connector-curvature="0"
       transform="scale(0.26458333)" />
    <path
       style="opacity:1;fill:#f9b43b;fill-opacity:0;stroke:#f9b43b;stroke-width:0.71428573;stroke-opacity:0"
       d="m 165.49943,564.35989 c 1.04101,-0.91704 31.38879,-29.43367 67.43952,-63.37029 36.05074,-33.93662 65.78827,-61.70295 66.08341,-61.70295 0.29515,0 32.2087,28.28572 70.91901,62.85715 l 70.38238,62.85714 -35.50139,0.43575 c -19.52576,0.23966 -81.7871,0.47058 -138.35852,0.51314 l -102.85715,0.0774 z"
       id="path4607"
       inkscape:connector-curvature="0"
       transform="scale(0.26458333)" />
    <path
       style="opacity:1;fill:#f9b43b;fill-opacity:0;stroke:#f9b43b;stroke-width:0.71428573;stroke-opacity:0"
       d="m 165.49943,564.35989 c 1.04101,-0.91704 31.38879,-29.43367 67.43952,-63.37029 36.05074,-33.93662 65.78827,-61.70295 66.08341,-61.70295 0.29515,0 32.2087,28.28572 70.91901,62.85715 l 70.38238,62.85714 -35.50139,0.43575 c -19.52576,0.23966 -81.7871,0.47058 -138.35852,0.51314 l -102.85715,0.0774 z"
       id="path4609"
       inkscape:connector-curvature="0"
       transform="scale(0.26458333)" />
    <path
       style="opacity:1;fill:#f9b43b;fill-opacity:0;stroke:#f9b43b;stroke-width:0.71428573;stroke-opacity:0"
       d="m 165.49943,564.35989 c 1.04101,-0.91704 31.38879,-29.43367 67.43952,-63.37029 36.05074,-33.93662 65.78827,-61.70295 66.08341,-61.70295 0.29515,0 32.2087,28.28572 70.91901,62.85715 l 70.38238,62.85714 -35.50139,0.43575 c -19.52576,0.23966 -81.7871,0.47058 -138.35852,0.51314 l -102.85715,0.0774 z"
       id="path4611"
       inkscape:connector-curvature="0"
       transform="scale(0.26458333)" />
    <path
       style="opacity:1;fill:#f9b43b;fill-opacity:0;stroke:#f9b43b;stroke-width:0.71428573;stroke-opacity:0"
       d="m 165.49943,564.35989 c 1.04101,-0.91704 31.38879,-29.43367 67.43952,-63.37029 36.05074,-33.93662 65.78827,-61.70295 66.08341,-61.70295 0.29515,0 32.2087,28.28572 70.91901,62.85715 l 70.38238,62.85714 -35.50139,0.43575 c -19.52576,0.23966 -81.7871,0.47058 -138.35852,0.51314 l -102.85715,0.0774 z"
       id="path4613"
       inkscape:connector-curvature="0"
       transform="scale(0.26458333)" />
    <path
       style="opacity:1;fill:#f9b43b;fill-opacity:0;stroke:#f9b43b;stroke-width:0.71428573;stroke-opacity:0"
       d="m 165.49943,564.35989 c 1.04101,-0.91704 31.38879,-29.43367 67.43952,-63.37029 36.05074,-33.93662 65.78827,-61.70295 66.08341,-61.70295 0.29515,0 32.2087,28.28572 70.91901,62.85715 l 70.38238,62.85714 -35.50139,0.43575 c -19.52576,0.23966 -81.7871,0.47058 -138.35852,0.51314 l -102.85715,0.0774 z"
       id="path4615"
       inkscape:connector-curvature="0"
       transform="scale(0.26458333)" />
    <path
       style="opacity:1;fill:#f9b43b;fill-opacity:0;stroke:#f9b43b;stroke-width:0.71428573;stroke-opacity:0"
       d="m 165.49943,564.35989 c 1.04101,-0.91704 31.38879,-29.43367 67.43952,-63.37029 36.05074,-33.93662 65.78827,-61.70295 66.08341,-61.70295 0.29515,0 32.2087,28.28572 70.91901,62.85715 l 70.38238,62.85714 -35.50139,0.43575 c -19.52576,0.23966 -81.7871,0.47058 -138.35852,0.51314 l -102.85715,0.0774 z"
       id="path4617"
       inkscape:connector-curvature="0"
       transform="scale(0.26458333)" />
    <path
       style="opacity:1;fill:#f9b43b;fill-opacity:0;stroke:#f9b43b;stroke-width:0.71428573;stroke-opacity:0"
       d="m 165.49943,564.35989 c 1.04101,-0.91704 31.38879,-29.43367 67.43952,-63.37029 36.05074,-33.93662 65.78827,-61.70295 66.08341,-61.70295 0.29515,0 32.2087,28.28572 70.91901,62.85715 l 70.38238,62.85714 -35.50139,0.43575 c -19.52576,0.23966 -81.7871,0.47058 -138.35852,0.51314 l -102.85715,0.0774 z"
       id="path4619"
       inkscape:connector-curvature="0"
       transform="scale(0.26458333)" />
    <path
       style="opacity:1;fill:#f9b43b;fill-opacity:0;stroke:#f9b43b;stroke-width:0.71428573;stroke-opacity:0;filter:url(#filter4687)"
       d="m 165.49943,564.35989 c 1.04101,-0.91704 31.38879,-29.43367 67.43952,-63.37029 36.05074,-33.93662 65.78827,-61.70295 66.08341,-61.70295 0.29515,0 32.2087,28.28572 70.91901,62.85715 l 70.38238,62.85714 -35.50139,0.43575 c -19.52576,0.23966 -81.7871,0.47058 -138.35852,0.51314 l -102.85715,0.0774 z"
       id="path4621"
       inkscape:connector-curvature="0"
       transform="scale(0.26458333)" />
    <path
       style="opacity:1;fill:#f9b43b;fill-opacity:0;stroke:#f9b43b;stroke-width:0.71428573;stroke-opacity:0"
       d="m 165.49943,564.35989 c 1.04101,-0.91704 31.38879,-29.43367 67.43952,-63.37029 36.05074,-33.93662 65.78827,-61.70295 66.08341,-61.70295 0.29515,0 32.2087,28.28572 70.91901,62.85715 l 70.38238,62.85714 -35.50139,0.43575 c -19.52576,0.23966 -81.7871,0.47058 -138.35852,0.51314 l -102.85715,0.0774 z"
       id="path4691"
       inkscape:connector-curvature="0"
       transform="scale(0.26458333)" />
    <path
       style="opacity:1;fill:#f9b43b;fill-opacity:0;stroke:#f9b43b;stroke-width:0.71428573;stroke-opacity:0"
       d="m 165.49943,564.35989 c 1.04101,-0.91704 31.38879,-29.43367 67.43952,-63.37029 36.05074,-33.93662 65.78827,-61.70295 66.08341,-61.70295 0.29515,0 32.2087,28.28572 70.91901,62.85715 l 70.38238,62.85714 -35.50139,0.43575 c -19.52576,0.23966 -81.7871,0.47058 -138.35852,0.51314 l -102.85715,0.0774 z"
       id="path4693"
       inkscape:connector-curvature="0"
       transform="scale(0.26458333)" />
    <path
       style="opacity:1;fill:#f9b43b;fill-opacity:0;stroke:#f9b43b;stroke-width:0.71428573;stroke-opacity:0"
       d="m 165.49943,564.35989 c 1.04101,-0.91704 31.38879,-29.43367 67.43952,-63.37029 36.05074,-33.93662 65.78827,-61.70295 66.08341,-61.70295 0.29515,0 32.2087,28.28572 70.91901,62.85715 l 70.38238,62.85714 -35.50139,0.43575 c -19.52576,0.23966 -81.7871,0.47058 -138.35852,0.51314 l -102.85715,0.0774 z"
       id="path4695"
       inkscape:connector-curvature="0"
       transform="scale(0.26458333)" />
    <path
       style="opacity:1;fill:#f9b43b;fill-opacity:0;stroke:#f9b43b;stroke-width:0.71428573;stroke-opacity:0"
       d="m 165.49943,564.35989 c 1.04101,-0.91704 31.38879,-29.43367 67.43952,-63.37029 36.05074,-33.93662 65.78827,-61.70295 66.08341,-61.70295 0.29515,0 32.2087,28.28572 70.91901,62.85715 l 70.38238,62.85714 -35.50139,0.43575 c -19.52576,0.23966 -81.7871,0.47058 -138.35852,0.51314 l -102.85715,0.0774 z"
       id="path4697"
       inkscape:connector-curvature="0"
       transform="scale(0.26458333)" />
    <path
       style="opacity:1;fill:#000000;fill-opacity:0;stroke:#f9b43b;stroke-width:0.71428573;stroke-opacity:0"
       d="m 165.49943,564.35989 c 1.04101,-0.91704 31.38879,-29.43367 67.43952,-63.37029 36.05074,-33.93662 65.78827,-61.70295 66.08341,-61.70295 0.29515,0 32.2087,28.28572 70.91901,62.85715 l 70.38238,62.85714 -35.50139,0.43575 c -19.52576,0.23966 -81.7871,0.47058 -138.35852,0.51314 l -102.85715,0.0774 z"
       id="path4699"
       inkscape:connector-curvature="0"
       transform="scale(0.26458333)" />
    <path
       style="opacity:1;fill:#f9b43b;fill-opacity:0"
       d="m 165.49943,564.35989 c 1.04101,-0.91704 31.38879,-29.43367 67.43952,-63.37029 36.05074,-33.93662 65.78827,-61.70295 66.08341,-61.70295 0.29515,0 32.2087,28.28572 70.91901,62.85715 l 70.38238,62.85714 -35.50139,0.43575 c -19.52576,0.23966 -81.7871,0.47058 -138.35852,0.51314 l -102.85715,0.0774 z"
       id="path4701"
       inkscape:connector-curvature="0"
       transform="scale(0.26458333)" />
  </g>
  <g
     inkscape:groupmode="layer"
     id="layer2"
     inkscape:label="Layer 2"
     style="display:inline"
     transform="translate(-48.57927,-153.46492)">
    <path
       style="opacity:1;fill:#f9b43b;fill-opacity:1;stroke:none;stroke-width:0.00741777"
       d="m 48.595558,153.48495 c 0.009,0.0115 0.270112,0.36887 0.580341,0.79417 0.31023,0.42531 0.566132,0.77329 0.568672,0.77329 0.0025,0 0.277167,-0.35449 0.610283,-0.78775 l 0.605666,-0.78774 -0.305502,-0.005 c -0.168026,-0.003 -0.703808,-0.006 -1.190625,-0.006 l -0.885123,-0.001 z"
       id="path4703"
       inkscape:connector-curvature="0" />
  </g>
</svg>
